<svg width="12" height="12" viewBox="0 0 12 12" fill="none" xmlns="http://www.w3.org/2000/svg">
<path d="M8.33366 10.6667V1.33334H1.33366V10.0833C1.33366 10.238 1.39512 10.3864 1.50451 10.4958C1.61391 10.6052 1.76228 10.6667 1.91699 10.6667H8.33366ZM10.0837 11.8333H1.91699C1.45286 11.8333 1.00774 11.649 0.679555 11.3208C0.351367 10.9926 0.166992 10.5475 0.166992 10.0833V0.750005C0.166992 0.595295 0.22845 0.446922 0.337847 0.337526C0.447243 0.22813 0.595616 0.166672 0.750326 0.166672H8.91699C9.0717 0.166672 9.22008 0.22813 9.32947 0.337526C9.43887 0.446922 9.50033 0.595295 9.50033 0.750005V4.83334H11.8337V10.0833C11.8337 10.5475 11.6493 10.9926 11.3211 11.3208C10.9929 11.649 10.5478 11.8333 10.0837 11.8333ZM9.50033 6.00001V10.0833C9.50033 10.238 9.56178 10.3864 9.67118 10.4958C9.78058 10.6052 9.92895 10.6667 10.0837 10.6667C10.2384 10.6667 10.3867 10.6052 10.4961 10.4958C10.6055 10.3864 10.667 10.238 10.667 10.0833V6.00001H9.50033ZM2.50033 2.50001H6.00033V6.00001H2.50033V2.50001ZM3.66699 3.66667V4.83334H4.83366V3.66667H3.66699ZM2.50033 6.58334H7.16699V7.75001H2.50033V6.58334ZM2.50033 8.33334H7.16699V9.50001H2.50033V8.33334Z" fill="#FA8C16"/>
</svg>

