<svg width="13" height="13" viewBox="0 0 13 13" fill="none" xmlns="http://www.w3.org/2000/svg">
<path d="M5.41699 0.316747C5.60949 0.299831 5.80374 0.291664 6.00033 0.291664C9.70508 0.291664 12.7087 3.29525 12.7087 7C12.7087 7.19658 12.7005 7.39083 12.6836 7.58333H11.8051C11.5122 10.5309 9.02491 12.8333 6.00033 12.8333C2.77858 12.8333 0.166992 10.2217 0.166992 7C0.166992 3.97541 2.46941 1.48808 5.41699 1.19583V0.316164V0.316747ZM5.41699 7.58333V2.3695C4.24024 2.51923 3.16466 3.11142 2.40885 4.02571C1.65305 4.94 1.27374 6.10777 1.34802 7.29168C1.4223 8.47559 1.9446 9.5868 2.80876 10.3994C3.67292 11.2121 4.81409 11.6652 6.00033 11.6667C7.13702 11.6666 8.23463 11.2518 9.08718 10.5C9.93973 9.74819 10.4886 8.71109 10.6308 7.58333H5.41699ZM11.5117 6.41666C11.3779 5.15544 10.8158 3.97821 9.91893 3.08139C9.02211 2.18457 7.84488 1.6224 6.58366 1.48866V6.41666H11.5117Z" fill="#595959"/>
</svg>
