<svg width="13" height="13" viewBox="0 0 13 13" fill="none" xmlns="http://www.w3.org/2000/svg">
<path d="M3.18176 7.75L0.583008 9.79166V0.749997C0.583008 0.595288 0.644466 0.446915 0.753862 0.337518C0.863258 0.228122 1.01163 0.166664 1.16634 0.166664H9.91634C10.0711 0.166664 10.2194 0.228122 10.3288 0.337518C10.4382 0.446915 10.4997 0.595288 10.4997 0.749997V7.75H3.18176ZM2.77809 6.58333H9.33301V1.33333H1.74967V7.39125L2.77809 6.58333ZM4.66634 8.91666H10.6379L11.6663 9.72458V3.66666H12.2497C12.4044 3.66666 12.5528 3.72812 12.6622 3.83752C12.7716 3.94691 12.833 4.09529 12.833 4.25V12.125L10.2343 10.0833H5.24967C5.09496 10.0833 4.94659 10.0219 4.8372 9.91248C4.7278 9.80308 4.66634 9.65471 4.66634 9.5V8.91666Z" fill="#FA8C16"/>
</svg>
