      <svg
       width="20px"
       height="20px"
        viewBox="0 0 36 36"
        fill="none"
        xmlns="http://www.w3.org/2000/svg"
      >
        <path
          d="M22.2419 11.6356L13.7579 20.1211C13.6147 20.2594 13.5004 20.425 13.4218 20.608C13.3432 20.791 13.3018 20.9878 13.3001 21.187C13.2983 21.3861 13.3363 21.5837 13.4117 21.768C13.4871 21.9524 13.5985 22.1198 13.7394 22.2607C13.8802 22.4015 14.0477 22.5129 14.232 22.5883C14.4164 22.6637 14.6139 22.7017 14.813 22.7C15.0122 22.6982 15.209 22.6568 15.392 22.5782C15.5751 22.4996 15.7406 22.3853 15.8789 22.2421L24.3644 13.7581C25.2084 12.9141 25.6826 11.7694 25.6826 10.5758C25.6826 9.38225 25.2084 8.23756 24.3644 7.39358C23.5205 6.54959 22.3758 6.07544 21.1822 6.07544C19.9886 6.07544 18.8439 6.54959 17.9999 7.39358L9.51444 15.8791C8.80356 16.5723 8.23739 17.3997 7.84878 18.3134C7.46017 19.2271 7.25686 20.2089 7.25064 21.2018C7.24442 22.1947 7.43541 23.1789 7.81254 24.0974C8.18967 25.0159 8.74542 25.8504 9.44757 26.5525C10.1497 27.2545 10.9843 27.8101 11.9028 28.1871C12.8214 28.5641 13.8057 28.755 14.7985 28.7486C15.7914 28.7423 16.7732 28.5388 17.6868 28.1501C18.6005 27.7613 19.4279 27.1951 20.1209 26.4841L28.6064 18.0001L30.7274 20.1211L22.2419 28.6066C21.2669 29.5816 20.1093 30.3551 18.8353 30.8828C17.5613 31.4105 16.1959 31.6821 14.8169 31.6821C13.438 31.6821 12.0725 31.4105 10.7986 30.8828C9.52458 30.3551 8.36701 29.5816 7.39194 28.6066C6.41688 27.6315 5.64341 26.4739 5.11571 25.2C4.58801 23.926 4.31641 22.5605 4.31641 21.1816C4.31641 19.8026 4.58801 18.4372 5.11571 17.1632C5.64341 15.8892 6.41688 14.7316 7.39194 13.7566L15.8789 5.27258C17.2935 3.90639 19.188 3.15043 21.1545 3.16752C23.1209 3.18461 25.002 3.97338 26.3926 5.36394C27.7831 6.7545 28.5719 8.63559 28.589 10.6021C28.6061 12.5685 27.8501 14.4631 26.4839 15.8776L17.9999 24.3661C17.5819 24.784 17.0857 25.1154 16.5396 25.3416C15.9935 25.5677 15.4082 25.6841 14.8172 25.684C14.2261 25.6839 13.6408 25.5674 13.0948 25.3412C12.5487 25.1149 12.0526 24.7833 11.6347 24.3653C11.2168 23.9473 10.8853 23.4511 10.6592 22.905C10.4331 22.3589 10.3167 21.7736 10.3168 21.1825C10.3169 20.5915 10.4333 20.0062 10.6596 19.4602C10.8859 18.9141 11.2174 18.418 11.6354 18.0001L20.1209 9.51458L22.2419 11.6356Z"
          fill="black"
        />
      </svg>