<svg
    width="7"
    height="10"
    viewBox="0 0 7 10"
    fill="none"
    xmlns="http://www.w3.org/2000/svg"
    >
    <path
        d="M6.25031 1.32848V0.362226C6.25031 0.278476 6.15406 0.232226 6.08906 0.283476L0.454061 4.68473C0.406184 4.72196 0.367443 4.76964 0.340795 4.82412C0.314146 4.8786 0.300293 4.93845 0.300293 4.9991C0.300293 5.05975 0.314146 5.1196 0.340795 5.17409C0.367443 5.22857 0.406184 5.27624 0.454061 5.31348L6.08906 9.71473C6.15531 9.76598 6.25031 9.71973 6.25031 9.63598V8.66973C6.25031 8.60848 6.22156 8.54973 6.17406 8.51223L1.67406 4.99973L6.17406 1.48598C6.22156 1.44848 6.25031 1.38973 6.25031 1.32848Z"
        fill="#8C8C8C"
    />
</svg>