<svg width="32" height="32" viewBox="0 0 32 32" fill="none" xmlns="http://www.w3.org/2000/svg">
<path d="M29.9208 26.1039C29.1629 24.3086 28.063 22.6779 26.6824 21.3026C25.306 19.9233 23.6755 18.8236 21.8811 18.0642C21.865 18.0561 21.8489 18.0521 21.8328 18.0441C24.336 16.2361 25.9632 13.291 25.9632 9.96819C25.9632 4.46373 21.5034 0.00390625 15.9989 0.00390625C10.4944 0.00390625 6.03462 4.46373 6.03462 9.96819C6.03462 13.291 7.66185 16.2361 10.165 18.0481C10.1489 18.0561 10.1328 18.0602 10.1168 18.0682C8.31676 18.8276 6.70158 19.9164 5.31542 21.3066C3.93613 22.683 2.83642 24.3134 2.07703 26.1079C1.331 27.8647 0.928655 29.7483 0.891763 31.6566C0.890691 31.6995 0.898212 31.7421 0.913885 31.7821C0.929557 31.822 0.953063 31.8584 0.983018 31.8891C1.01297 31.9198 1.04877 31.9442 1.0883 31.9608C1.12783 31.9775 1.1703 31.9861 1.21319 31.9861H3.62391C3.80069 31.9861 3.94132 31.8454 3.94533 31.6727C4.02569 28.5709 5.27123 25.666 7.47301 23.4642C9.75114 21.1861 12.7766 19.9325 15.9989 19.9325C19.2212 19.9325 22.2467 21.1861 24.5248 23.4642C26.7266 25.666 27.9721 28.5709 28.0525 31.6727C28.0565 31.8494 28.1971 31.9861 28.3739 31.9861H30.7846C30.8275 31.9861 30.87 31.9775 30.9095 31.9608C30.949 31.9442 30.9848 31.9198 31.0148 31.8891C31.0447 31.8584 31.0683 31.822 31.0839 31.7821C31.0996 31.7421 31.1071 31.6995 31.106 31.6566C31.0659 29.7361 30.6681 27.8678 29.9208 26.1039ZM15.9989 16.8789C14.1547 16.8789 12.419 16.1597 11.1132 14.8539C9.80739 13.5481 9.08819 11.8124 9.08819 9.96819C9.08819 8.124 9.80739 6.38828 11.1132 5.08248C12.419 3.77667 14.1547 3.05748 15.9989 3.05748C17.8431 3.05748 19.5788 3.77667 20.8846 5.08248C22.1904 6.38828 22.9096 8.124 22.9096 9.96819C22.9096 11.8124 22.1904 13.5481 20.8846 14.8539C19.5788 16.1597 17.8431 16.8789 15.9989 16.8789Z" fill="black" fill-opacity="0.85"/>
</svg>
