
<svg width="12" height="14" viewBox="0 0 12 14" fill="none" xmlns="http://www.w3.org/2000/svg">
    <path d="M11.4136 10.9295C11.1189 10.2313 10.6911 9.59711 10.1542 9.06226C9.61898 8.52587 8.98491 8.09821 8.28705 7.80289C8.2808 7.79976 8.27455 7.7982 8.2683 7.79508C9.24174 7.09195 9.87455 5.94664 9.87455 4.65445C9.87455 2.51382 8.14017 0.779449 5.99955 0.779449C3.85893 0.779449 2.12455 2.51382 2.12455 4.65445C2.12455 5.94664 2.75736 7.09195 3.7308 7.79664C3.72455 7.79976 3.7183 7.80133 3.71205 7.80445C3.01205 8.09976 2.38393 8.5232 1.84486 9.06383C1.30847 9.59909 0.880808 10.2332 0.585488 10.931C0.295367 11.6142 0.138898 12.3467 0.124551 13.0888C0.124134 13.1055 0.127059 13.1221 0.133154 13.1376C0.139249 13.1532 0.14839 13.1673 0.160039 13.1792C0.171688 13.1912 0.185609 13.2007 0.200982 13.2071C0.216355 13.2136 0.232869 13.217 0.249551 13.217H1.18705C1.2558 13.217 1.31049 13.1623 1.31205 13.0951C1.3433 11.8888 1.82768 10.7591 2.68393 9.90289C3.56986 9.01695 4.74643 8.52945 5.99955 8.52945C7.25268 8.52945 8.42924 9.01695 9.31518 9.90289C10.1714 10.7591 10.6558 11.8888 10.687 13.0951C10.6886 13.1638 10.7433 13.217 10.812 13.217H11.7495C11.7662 13.217 11.7827 13.2136 11.7981 13.2071C11.8135 13.2007 11.8274 13.1912 11.8391 13.1792C11.8507 13.1673 11.8599 13.1532 11.8659 13.1376C11.872 13.1221 11.875 13.1055 11.8745 13.0888C11.8589 12.342 11.7042 11.6154 11.4136 10.9295ZM5.99955 7.34195C5.28236 7.34195 4.60736 7.06226 4.09955 6.55445C3.59174 6.04664 3.31205 5.37164 3.31205 4.65445C3.31205 3.93726 3.59174 3.26226 4.09955 2.75445C4.60736 2.24664 5.28236 1.96695 5.99955 1.96695C6.71674 1.96695 7.39174 2.24664 7.89955 2.75445C8.40736 3.26226 8.68705 3.93726 8.68705 4.65445C8.68705 5.37164 8.40736 6.04664 7.89955 6.55445C7.39174 7.06226 6.71674 7.34195 5.99955 7.34195Z" fill="black" fill-opacity="0.85"/>
</svg>
