<svg width="18" height="20" viewBox="0 0 18 20" fill="none" xmlns="http://www.w3.org/2000/svg">
<path d="M7 0V2H9V0H17.007C17.555 0 18 0.444 18 0.992V19.008C17.9979 19.2706 17.8926 19.5219 17.7068 19.7075C17.521 19.8931 17.2696 19.9982 17.007 20H0.993C0.729813 20 0.477391 19.8955 0.291196 19.7095C0.105001 19.5235 0.000265042 19.2712 0 19.008V0.992C0.00209465 0.72938 0.107418 0.478126 0.293218 0.292513C0.479017 0.1069 0.730378 0.00183004 0.993 0H7ZM9 2V4H11V2H9ZM7 4V6H9V4H7ZM9 6V8H11V6H9ZM7 8V10H9V8H7ZM9 10V12H7V15H11V10H9Z" fill="#9254DE"/>
</svg>
